<?xml version="1.0" encoding="UTF-8"?>
<svg id="Layer_1" xmlns="http://www.w3.org/2000/svg" version="1.1" viewBox="0 0 100 125" role="img" aria-labelledby="title desc">
  <title id="title">Pastel Skies isometric letter J</title>
  <desc id="desc">An isometric letter J colored exclusively with Lavender Veil, Lavender Mist, Periwinkle, Soft Periwinkle, and Medium Slate Blue.</desc>
  <defs>
    <linearGradient id="topGlow" x1="44" y1="11" x2="73" y2="25" gradientUnits="userSpaceOnUse">
      <stop offset="0" stop-color="#f5efff"/>
      <stop offset="1" stop-color="#e5d9f2"/>
    </linearGradient>
    <linearGradient id="upperSide" x1="60" y1="24" x2="73" y2="43" gradientUnits="userSpaceOnUse">
      <stop offset="0" stop-color="#e5d9f2"/>
      <stop offset="1" stop-color="#e5d9f2"/>
    </linearGradient>
    <linearGradient id="middleSide" x1="60" y1="43" x2="73" y2="61" gradientUnits="userSpaceOnUse">
      <stop offset="0" stop-color="#cdc1ff"/>
      <stop offset="1" stop-color="#cdc1ff"/>
    </linearGradient>
    <linearGradient id="lowerSide" x1="60" y1="61" x2="73" y2="79" gradientUnits="userSpaceOnUse">
      <stop offset="0" stop-color="#a594f9"/>
      <stop offset="1" stop-color="#7371fc"/>
    </linearGradient>
    <linearGradient id="footTop" x1="29" y1="59" x2="57" y2="70" gradientUnits="userSpaceOnUse">
      <stop offset="0" stop-color="#f5efff"/>
      <stop offset="1" stop-color="#cdc1ff"/>
    </linearGradient>
    <linearGradient id="footSide" x1="44" y1="68" x2="57" y2="88" gradientUnits="userSpaceOnUse">
      <stop offset="0" stop-color="#cdc1ff"/>
      <stop offset="1" stop-color="#a594f9"/>
    </linearGradient>
    <filter id="softShadow" x="19" y="2" width="64" height="99" filterUnits="userSpaceOnUse" color-interpolation-filters="sRGB">
      <feDropShadow dx="0" dy="1.5" stdDeviation="1.8" flood-color="#7371fc" flood-opacity="0.18"/>
    </filter>
  </defs>
  <g filter="url(#softShadow)">
    <!-- Pastel Skies facets sit beneath the original compound path so its geometry stays crisp. -->
    <path fill="url(#topGlow)" d="M58.6 8.9 73.7 17.7 58.6 26.5 43.5 17.7Z"/>
    <path fill="url(#upperSide)" d="M58.7 26.5 73.7 17.8 73.7 36.6 58.7 45.3Z"/>
    <path fill="url(#middleSide)" d="M58.7 45.2 73.7 36.5 73.7 55.3 58.7 64Z"/>
    <path fill="url(#lowerSide)" d="M58.7 63.9 73.7 55.2 73.7 73 58.7 81.7Z"/>
    <path fill="url(#footTop)" d="M27.5 64.5 43.3 55.3 58.4 64 42.4 73.3Z"/>
    <path fill="url(#footSide)" d="M42.4 73.3 58.5 64 58.5 81.7 42.4 91Z"/>
    <path fill="#7371fc" d="M25.7,83s0,0,0,0c0,0,0,0,0,0,0,0,0,0,0,0,0,0,0,0,0,0l16.2,9.4h0s0,0,0,0c0,0,.1,0,.2,0s.2,0,.2,0c0,0,0,0,0,0h0l16.2-9.4,16.2-9.4s0,0,0,0c0,0,0,0,0,0,0,0,0,0,0,0,0,0,0,0,0,0,0,0,0,0,0,0,0,0,0,0,0,0V17.2s0,0,0,0c0,0,0,0,0,0,0,0,0,0,0,0h0c0,0,0,0,0,0s0,0,0,0c0,0,0-.1-.1-.1,0,0,0,0,0,0l-16.2-9.4s0,0,0,0c0,0,0,0,0,0,0,0,0,0,0,0,0,0,0,0-.1,0,0,0,0,0,0,0,0,0,0,0,0,0l-16.2,9.4s0,0,0,0c0,0-.1,0-.1.1,0,0,0,0,0,0s0,0,0,0c0,0,0,0,0,0,0,0,0,0,0,0,0,0,0,0,0,0,0,0,0,0,0,0v37.2l-16,9.2s0,0,0,0c0,0,0,0,0,0,0,0,0,0,0,.1,0,0,0,0,0,0s0,0,0,0c0,0,0,0,0,.1,0,0,0,0,0,0,0,0,0,0,0,0v18.7s0,0,0,0c0,0,0,0,0,.1h0ZM73.3,36.3l-14.2,8.2v-17.6l14.2-8.2v17.6ZM73.3,55l-14.2,8.2v-17.6l14.2-8.2v17.6ZM42.8,73.7l15.2-8.8v16.4h-.2c0,.1-15,8.8-15,8.8v-16.4ZM59.1,64.4l14.2-8.2v16.4l-14.2,8.2v-16.4ZM58.6,26l-14.2-8.2,14.2-8.2,14.2,8.2-14.2,8.2ZM43.3,55.8l14.3,8.2-15.2,8.8-14.2-8.2,15-8.7c0,0,.1-.1.2-.2Z"/>
  </g>
</svg>
